<svg version="1.1" id="Layer_1" xmlns="http://www.w3.org/2000/svg" xmlns:xlink="http://www.w3.org/1999/xlink" x="0px" y="0px"
	 width="100%" viewBox="0 0 780 272" enable-background="new 0 0 780 272" xml:space="preserve">
<path fill="#000000" opacity="1.000000" stroke="none" 
	d="
M748.000000,0.999999 
	C758.997498,1.000000 769.994934,1.000000 780.994324,1.000000 
	C780.996216,91.643372 780.996216,182.286743 780.996216,272.965057 
	C521.082886,272.965057 261.165771,272.965057 1.124330,272.965057 
	C1.124330,182.437149 1.124330,91.874077 1.124330,1.000000 
	C176.689163,1.000000 352.378510,1.000000 528.574341,1.299215 
	C529.398438,1.818058 529.716064,2.037685 530.088806,2.497591 
	C530.367371,3.017355 530.657959,3.155123 530.981812,3.310182 
	C530.947815,3.469190 530.944641,3.794377 530.670532,3.894602 
	C530.577332,4.399578 530.758301,4.804329 530.949158,5.376649 
	C530.958984,5.544217 531.081909,5.856612 530.955688,6.241426 
	C530.818054,9.266302 528.596375,12.219253 531.921143,14.819935 
	C532.911682,28.215384 533.964661,41.173065 534.873535,54.140842 
	C535.156006,58.170559 534.747498,62.260727 535.188538,66.264496 
	C535.853882,72.305595 537.274902,78.267174 537.862610,84.312347 
	C539.114990,97.192345 540.038025,110.104362 540.994995,123.367966 
	C541.219360,124.850975 541.544739,125.969276 541.901062,127.389275 
	C542.011719,128.086029 542.091370,128.481079 542.057129,129.250732 
	C542.593567,136.120148 543.243896,142.614929 543.905334,149.453705 
	C543.925232,150.485947 543.934021,151.174225 543.613708,152.087311 
	C543.806946,154.913544 544.329285,157.514969 544.868774,160.421341 
	C544.952881,161.126053 545.019775,161.525803 544.975342,162.369720 
	C545.216370,165.914215 545.568848,169.014526 545.933899,172.412247 
	C546.010681,173.099442 546.074890,173.489227 546.011841,174.270432 
	C546.539429,181.134567 547.194153,187.607269 547.864746,194.350555 
	C547.904358,194.981018 547.928040,195.340912 547.702393,195.807556 
	C547.633484,196.282272 547.813965,196.650269 547.998413,197.007904 
	C548.002380,196.997559 547.980652,197.004059 547.995850,197.435059 
	C548.304504,200.283279 548.598022,202.700516 548.905334,205.418854 
	C548.981628,206.115082 549.044067,206.510193 548.996216,207.235992 
	C549.202271,210.742691 549.518616,213.918716 549.853638,217.387329 
	C549.949219,218.059875 550.026062,218.439835 549.953369,219.097778 
	C547.293518,222.885941 549.850403,225.113541 552.421204,225.775528 
	C560.553833,227.869843 568.853760,229.314743 577.409912,231.245285 
	C584.542175,232.986984 591.346313,234.527847 598.166626,235.993134 
	C607.173645,237.928253 616.387207,239.180176 625.147034,241.900925 
	C632.286743,244.118469 639.213623,244.881516 646.348328,243.346100 
	C654.706848,241.547333 662.941589,239.180374 671.278320,237.271179 
	C683.809448,234.401459 696.388855,231.742905 708.927490,228.905136 
	C710.078552,228.644623 711.083435,227.737976 712.433228,227.130707 
	C713.079285,227.113647 713.448303,227.097214 713.989014,227.422043 
	C716.935425,227.000671 719.742065,225.513779 722.478088,225.633820 
	C727.404236,225.849945 728.004700,223.346558 728.194092,219.398590 
	C728.658447,209.720886 729.255798,200.039795 730.178406,190.396286 
	C731.340210,178.251541 733.049377,166.159012 734.199829,154.013382 
	C735.096313,144.550003 735.371277,135.029373 736.149170,125.552795 
	C737.746948,106.085426 739.496704,86.630524 741.561035,66.940025 
	C741.924133,63.466713 741.909912,60.223858 741.976746,56.628548 
	C742.085510,55.555344 742.113342,54.834595 742.467773,53.855488 
	C744.144531,38.736023 745.494751,23.874918 746.944092,8.594108 
	C746.996094,6.181760 746.948914,4.189118 747.188721,2.100893 
	C747.650391,1.670205 747.825195,1.335101 748.000000,0.999999 
M305.999664,84.500000 
	C305.999664,74.074554 305.999664,63.649105 305.999664,53.003067 
	C297.690186,53.003067 290.039337,52.892040 282.398682,53.121407 
	C281.237274,53.156269 279.459381,54.551899 279.086029,55.686474 
	C272.607361,75.374672 266.325653,95.127556 259.945709,114.848457 
	C258.502289,119.310234 256.850342,123.704567 254.924377,129.182205 
	C246.720215,104.067986 238.956665,80.222572 231.081543,56.414055 
	C230.654846,55.124062 229.322937,53.195877 228.363525,53.166603 
	C219.955933,52.910122 211.537216,53.018211 203.236603,53.018211 
	C203.236603,87.697105 203.236603,121.634796 203.236603,155.724594 
	C208.868088,155.724594 214.260635,155.724594 219.929581,155.724594 
	C219.929581,129.862122 219.929581,104.272530 219.929581,78.682938 
	C220.182999,78.630585 220.436432,78.578224 220.689850,78.525871 
	C228.951569,104.301651 237.213287,130.077423 245.473114,155.847351 
	C250.966904,155.847351 256.271210,155.847351 261.639526,155.847351 
	C269.886444,130.356827 278.095001,104.984871 286.303589,79.612915 
	C286.604675,79.678398 286.905762,79.743881 287.206848,79.809364 
	C287.206848,105.079910 287.206848,130.350449 287.206848,155.701721 
	C293.581177,155.701721 299.640778,155.701721 305.999664,155.701721 
	C305.999664,132.103058 305.999664,108.801529 305.999664,84.500000 
M13.000010,144.481110 
	C13.000010,148.244110 13.000010,152.007126 13.000010,155.639923 
	C19.714558,155.639923 25.775202,155.639923 32.298904,155.639923 
	C32.298904,140.224319 32.298904,125.165192 32.298904,110.242249 
	C46.716167,110.242249 60.652599,110.242249 75.064896,110.242249 
	C75.064896,125.536179 75.064896,140.594070 75.064896,155.691528 
	C81.607185,155.691528 87.663803,155.691528 93.675423,155.691528 
	C93.675423,121.338234 93.675423,87.294426 93.675423,53.361374 
	C87.284416,53.361374 81.223892,53.361374 74.699295,53.361374 
	C74.699295,67.445351 74.699295,81.172066 74.699295,94.755196 
	C60.280243,94.755196 46.343807,94.755196 31.930908,94.755196 
	C31.930908,80.792389 31.930908,67.065674 31.930908,53.311184 
	C25.388092,53.311184 19.329639,53.311184 13.000010,53.311184 
	C13.000010,83.576675 13.000010,113.532257 13.000010,144.481110 
M139.780838,155.884293 
	C145.721939,155.884293 151.663040,155.884293 158.055725,155.884293 
	C158.055725,126.464691 158.055725,97.421730 158.055725,67.907303 
	C168.234619,67.907303 177.964798,67.907303 187.681488,67.907303 
	C187.681488,62.700909 187.681488,57.976826 187.681488,53.330765 
	C161.316711,53.330765 135.273407,53.330765 109.364723,53.330765 
	C109.364723,58.393867 109.364723,63.121155 109.364723,68.134338 
	C119.334160,68.134338 128.939316,68.134338 139.112289,68.134338 
	C139.112289,97.356125 139.112289,126.277344 139.780838,155.884293 
M345.325500,53.000656 
	C340.243744,53.000656 335.161987,53.000656 330.241608,53.000656 
	C330.241608,87.720428 330.241608,121.652306 330.241608,155.729370 
	C351.205048,155.729370 371.926086,155.729370 392.693115,155.729370 
	C392.693115,150.726379 392.693115,146.001175 392.693115,140.799835 
	C377.994720,140.799835 363.598572,140.799835 349.000000,140.799835 
	C349.000000,138.502533 349.000000,136.684235 349.000000,134.865921 
	C348.999969,109.043541 349.018372,83.221123 348.961121,57.398869 
	C348.957031,55.560818 350.161804,52.635941 345.325500,53.000656 
z"/>
<path fill="#FBCFD1" opacity="1.000000" stroke="none" 
	d="
M747.531372,0.999999 
	C747.825195,1.335101 747.650391,1.670205 746.738831,2.016618 
	C696.427246,2.016648 646.852478,1.985481 597.277649,2.003348 
	C575.821045,2.011081 554.364502,2.119972 532.640991,2.132344 
	C532.014038,2.105551 531.653870,2.129326 530.972839,2.108105 
	C530.445801,2.127844 530.239746,2.192580 530.033630,2.257314 
	C529.716064,2.037685 529.398438,1.818058 529.040405,1.299215 
	C601.687561,1.000000 674.375122,1.000000 747.531372,0.999999 
z"/>
<path fill="#FC3435" opacity="1.000000" stroke="none" 
	d="
M531.293762,2.153103 
	C531.653870,2.129326 532.014038,2.105551 532.992065,2.369023 
	C535.592224,2.780102 537.574097,3.006450 539.556702,3.012040 
	C561.370117,3.073548 583.183655,3.100695 604.945129,3.462985 
	C604.650940,5.402736 604.232971,7.014249 604.210754,8.631199 
	C604.182434,10.694611 604.416443,12.768682 604.641479,14.826778 
	C604.946838,17.619038 604.508850,20.953812 605.896667,23.065542 
	C608.394470,26.866234 612.756104,26.877375 616.375793,24.058990 
	C620.702942,20.689749 620.760254,19.583483 616.509644,12.849609 
	C618.058044,13.500605 619.026855,13.910736 619.997803,14.315644 
	C624.775879,16.308231 629.573425,13.367290 629.973694,8.139666 
	C630.100037,6.489673 629.995605,4.822009 630.464478,3.130666 
	C667.161255,3.075228 703.390381,3.083217 739.619263,2.979316 
	C743.276001,2.968829 745.492249,3.835158 744.712646,8.307015 
	C743.282654,23.749666 742.103821,38.864288 740.695068,53.981613 
	C740.465027,53.984310 740.002441,53.993568 739.650757,54.088516 
	C738.538208,55.999493 737.777405,57.815521 737.035828,59.585663 
	C734.865479,58.299496 732.921204,57.147297 730.963867,55.533180 
	C731.892761,43.327877 732.908264,31.589600 733.724915,19.837507 
	C733.927979,16.915096 735.861694,12.913570 729.860474,12.938864 
	C700.878906,13.061008 671.896484,13.025099 642.914551,12.951283 
	C639.880798,12.943556 638.793823,14.017649 638.856506,17.034332 
	C639.029480,25.358063 638.991455,33.686180 638.848267,42.043816 
	C638.659729,42.075073 638.278748,42.096630 637.785278,42.063267 
	C624.526184,42.009106 611.760681,41.988308 599.167847,41.661533 
	C599.710632,39.855572 600.507019,38.316231 600.372803,36.862793 
	C599.923706,31.998499 601.804810,30.249947 606.449585,31.089106 
	C607.811584,31.335175 609.402283,30.314800 610.888184,29.874870 
	C610.808533,29.318834 610.728882,28.762798 610.649292,28.206764 
	C605.237122,25.715565 599.874207,23.104101 594.366089,20.847178 
	C593.406677,20.454079 591.418457,21.198715 590.668640,22.072695 
	C589.986267,22.868046 589.858643,24.767750 590.320740,25.811174 
	C592.734863,31.262352 595.414856,36.595787 597.533630,41.980125 
	C594.249878,41.993862 591.427063,41.865662 588.621765,42.032349 
	C584.424194,42.281765 580.238953,42.738529 576.042236,43.368187 
	C576.068237,43.800400 576.100342,43.971519 576.094849,44.573063 
	C578.147461,68.714851 580.184509,92.431107 582.358582,116.134796 
	C583.069519,123.886017 584.136963,131.604538 585.182983,139.689728 
	C587.042786,140.360779 588.759644,140.947617 590.479614,140.957108 
	C604.241638,141.033157 618.005432,140.914825 631.765625,141.090607 
	C633.871033,141.117508 635.960999,142.348267 638.115601,143.351440 
	C638.361816,144.767288 638.550537,145.853943 638.542297,146.962540 
	C638.345337,146.984497 637.946411,147.027603 637.729065,147.210388 
	C637.342773,147.927002 637.173828,148.460831 636.695129,149.165207 
	C631.187439,154.064117 636.126770,157.325851 638.136719,161.415131 
	C638.455811,164.542465 638.714050,167.274857 638.945312,170.403961 
	C638.930542,171.860535 638.942810,172.920410 638.943726,174.225433 
	C638.932312,174.470581 638.968384,174.960114 638.897461,174.965408 
	C638.826477,174.970703 638.701599,175.038910 638.547363,175.172623 
	C638.202026,175.511856 638.070923,175.750443 637.602173,176.066742 
	C631.559509,174.708511 625.958130,173.079468 620.254578,171.981781 
	C616.411194,171.242111 614.401367,169.814941 614.721802,165.519058 
	C614.937317,162.630173 614.246460,159.673691 614.016602,157.316132 
	C604.385132,157.316132 595.370789,157.316132 586.011536,157.316132 
	C586.980896,167.915710 588.101685,177.656509 588.646484,187.429428 
	C588.850037,191.080353 590.439819,192.133575 593.552673,192.895905 
	C608.079834,196.453506 622.559448,200.205139 637.228882,204.110168 
	C637.893066,204.599792 638.384460,204.866638 638.872864,205.593658 
	C638.869873,214.568939 638.869873,223.084045 638.869873,231.840607 
	C641.269592,231.840607 643.538696,231.840607 646.123413,231.857239 
	C646.957581,231.571533 647.476135,231.269211 648.294556,230.933105 
	C648.996094,230.887482 649.397888,230.875641 650.116150,230.876556 
	C650.953125,230.587448 651.473633,230.285568 652.306580,229.953827 
	C653.037109,229.910095 653.455261,229.896255 654.277100,229.914490 
	C656.786499,229.291626 658.892151,228.636658 661.372559,227.946045 
	C662.750183,227.871262 663.753052,227.832108 665.082031,227.819733 
	C665.918884,227.509918 666.429626,227.173325 667.145569,226.636627 
	C667.903625,226.312759 668.456421,226.188965 669.177185,226.254745 
	C669.877991,226.254776 670.410889,226.065231 671.152832,225.678314 
	C671.913574,225.347839 672.465210,225.214737 673.120667,225.208374 
	C673.224426,225.335114 673.673706,225.364746 673.673706,225.364746 
	C673.673706,225.364746 673.990540,225.005737 674.341431,224.975494 
	C675.395996,224.915939 676.099609,224.886627 677.161133,224.892700 
	C678.345581,224.587601 679.172119,224.247147 680.331177,223.750183 
	C682.359009,223.350525 684.054382,223.107407 686.005676,222.800308 
	C686.505920,222.492783 686.750183,222.249237 687.334106,221.941589 
	C688.787109,221.604095 689.900330,221.330673 691.180298,221.247894 
	C691.898193,221.268387 692.449463,221.098221 693.341309,220.771652 
	C699.719482,219.362427 705.756958,218.109634 712.112671,216.870422 
	C712.951965,216.577286 713.473022,216.270584 714.307983,215.891449 
	C715.172302,215.215515 715.722656,214.612000 716.597656,213.882095 
	C716.966797,211.511322 717.011169,209.266937 717.046143,206.590973 
	C717.134338,204.439911 717.231873,202.720413 717.630981,200.889191 
	C717.979309,199.190170 718.026184,197.602859 718.061218,195.610977 
	C718.348267,193.138138 718.647095,191.069885 719.204590,188.745178 
	C719.346313,186.673080 719.229492,184.857468 719.099243,182.670258 
	C719.363892,180.863770 719.641907,179.428833 720.172302,177.778961 
	C720.296021,176.379272 720.167297,175.194550 720.031250,173.592728 
	C720.094299,171.788818 720.164795,170.401978 720.569885,168.885651 
	C720.971802,166.184052 721.039001,163.611984 721.093140,160.657791 
	C721.349792,158.836380 721.619629,157.397095 722.164001,155.717941 
	C722.321716,153.660065 722.204895,151.842056 722.077148,149.605347 
	C722.143921,147.795517 722.221619,146.404388 722.604004,144.900986 
	C722.959412,143.200668 723.010071,141.612656 723.050049,139.610123 
	C723.326782,137.117676 723.614258,135.039749 724.178101,132.706833 
	C724.342712,130.312042 724.230957,128.172241 724.119751,125.695007 
	C724.162781,124.909897 724.205322,124.462227 724.568115,123.896378 
	C724.934387,121.857910 724.980469,119.937622 725.023315,117.590439 
	C725.335999,114.438446 725.651855,111.713341 726.115356,108.899223 
	C726.318298,108.710922 726.445129,108.570145 726.415894,108.519676 
	C726.307617,108.332718 726.147888,108.175552 725.999023,107.568611 
	C726.088501,105.089996 726.186401,103.049942 726.600220,100.889648 
	C726.955688,98.852058 726.995361,96.934715 727.026978,94.598267 
	C727.094604,92.786026 727.170227,91.392876 727.564209,89.886131 
	C727.956116,87.856293 728.029663,85.940056 728.099548,83.690079 
	C728.131348,82.912941 728.166809,82.469551 728.541809,81.896927 
	C728.952209,79.189003 729.023071,76.610313 729.081177,73.690956 
	C729.092041,72.896492 729.115784,72.442696 729.259644,71.886292 
	C729.535706,71.462273 729.451294,71.202393 729.110962,70.673523 
	C729.128296,69.903481 729.161194,69.463974 729.467285,68.955017 
	C729.812317,67.910934 729.884033,66.936287 729.859741,65.709244 
	C729.574463,64.950867 729.385376,64.444885 729.321533,63.767578 
	C729.611755,63.361336 729.815796,63.167809 730.257202,62.884453 
	C730.701660,62.541679 730.885620,62.285385 731.346008,62.032814 
	C733.801086,64.052872 735.917480,66.024475 738.027100,68.464836 
	C737.266418,82.662895 736.715027,96.407158 735.701111,110.117218 
	C734.713379,123.472809 733.198425,136.788605 732.018250,150.131027 
	C731.216370,159.197098 730.679138,168.286652 729.869202,177.351913 
	C728.647888,191.021652 727.165283,204.669235 726.071838,218.348465 
	C725.754150,222.323135 724.202576,223.813995 720.280518,224.155045 
	C718.058105,224.348297 715.967346,226.055450 713.817322,227.080765 
	C713.448303,227.097214 713.079285,227.113647 712.174377,226.870163 
	C707.309692,227.392990 702.961060,228.080719 698.656433,228.979279 
	C690.909363,230.596436 683.171387,232.265213 675.462097,234.052460 
	C668.277222,235.718124 661.185669,237.824005 653.957886,239.255554 
	C647.672852,240.500366 641.097839,242.385910 634.930969,241.648041 
	C624.682251,240.421753 614.654602,237.334564 604.540039,235.004349 
	C597.349548,233.347794 590.169189,231.647186 582.942932,229.633026 
	C582.385742,228.148865 581.869934,226.997910 581.557556,226.300964 
	C584.403809,225.545578 587.083740,224.834351 589.763672,224.123108 
	C589.684814,223.491409 589.606018,222.859726 589.527161,222.228027 
	C587.011230,221.735748 583.899780,221.975037 582.145447,220.547058 
	C580.363831,219.096863 579.921143,216.001862 578.209167,212.051407 
	C577.435120,215.998383 576.924316,218.603317 576.134521,222.630722 
	C573.931580,220.014297 572.558411,218.117783 570.888123,216.534912 
	C570.252014,215.932114 568.933655,216.049332 567.926208,215.838379 
	C567.802734,216.906876 567.202148,218.273392 567.647583,218.986542 
	C568.856934,220.922729 570.507874,222.583450 571.987000,224.350632 
	C573.000244,225.561203 574.019104,226.767151 574.627930,227.980377 
	C571.378601,227.326462 568.541138,226.648438 565.694275,226.012253 
	C559.977966,224.734772 553.437805,225.255920 550.102966,218.819794 
	C550.026062,218.439835 549.949219,218.059875 550.141907,217.121033 
	C549.976501,213.343201 549.541504,210.124252 549.106445,206.905304 
	C549.044067,206.510193 548.981628,206.115082 549.177002,205.124115 
	C549.652466,201.884460 551.609802,198.904449 547.980652,197.004059 
	C547.980652,197.004059 548.002380,196.997559 548.003540,196.678024 
	C547.987122,196.139282 547.969482,195.920059 547.951782,195.700821 
	C547.928040,195.340912 547.904358,194.981018 548.155396,194.079895 
	C548.186218,187.619339 547.988708,181.697220 547.633362,175.784592 
	C547.593506,175.121857 546.658813,174.512909 546.139099,173.879013 
	C546.074890,173.489227 546.010681,173.099442 546.199219,172.132477 
	C545.996826,168.345398 545.541748,165.135483 545.086670,161.925568 
	C545.019775,161.525803 544.952881,161.126053 545.145142,160.143799 
	C544.917114,156.995041 544.429932,154.428757 543.942810,151.862488 
	C543.934021,151.174225 543.925232,150.485947 544.180054,149.167023 
	C544.243408,142.531219 544.087036,136.523743 543.772522,130.524567 
	C543.742371,129.948685 542.728394,129.424377 542.171082,128.876129 
	C542.091370,128.481079 542.011719,128.086029 542.161743,127.164810 
	C541.959717,125.426857 541.527832,124.215057 541.096008,123.003258 
	C540.038025,110.104362 539.114990,97.192345 537.862610,84.312347 
	C537.274902,78.267174 535.853882,72.305595 535.188538,66.264496 
	C534.747498,62.260727 535.156006,58.170559 534.873535,54.140842 
	C533.964661,41.173065 532.911682,28.215384 531.948059,14.362001 
	C531.681885,10.932332 531.381897,8.394472 531.081909,5.856612 
	C531.081909,5.856612 530.958984,5.544217 530.966431,5.022319 
	C530.964172,4.265073 530.954407,4.029725 530.944641,3.794377 
	C530.944641,3.794377 530.947815,3.469190 531.055664,3.061389 
	C531.206848,2.486761 531.250305,2.319933 531.293762,2.153103 
z"/>
<path fill="#FC7D67" opacity="1.000000" stroke="none" 
	d="
M305.999664,85.000000 
	C305.999664,108.801529 305.999664,132.103058 305.999664,155.701721 
	C299.640778,155.701721 293.581177,155.701721 287.206848,155.701721 
	C287.206848,130.350449 287.206848,105.079910 287.206848,79.809364 
	C286.905762,79.743881 286.604675,79.678398 286.303589,79.612915 
	C278.095001,104.984871 269.886444,130.356827 261.639526,155.847351 
	C256.271210,155.847351 250.966904,155.847351 245.473114,155.847351 
	C237.213287,130.077423 228.951569,104.301651 220.689850,78.525871 
	C220.436432,78.578224 220.182999,78.630585 219.929581,78.682938 
	C219.929581,104.272530 219.929581,129.862122 219.929581,155.724594 
	C214.260635,155.724594 208.868088,155.724594 203.236603,155.724594 
	C203.236603,121.634796 203.236603,87.697105 203.236603,53.018211 
	C211.537216,53.018211 219.955933,52.910122 228.363525,53.166603 
	C229.322937,53.195877 230.654846,55.124062 231.081543,56.414055 
	C238.956665,80.222572 246.720215,104.067986 254.924377,129.182205 
	C256.850342,123.704567 258.502289,119.310234 259.945709,114.848457 
	C266.325653,95.127556 272.607361,75.374672 279.086029,55.686474 
	C279.459381,54.551899 281.237274,53.156269 282.398682,53.121407 
	C290.039337,52.892040 297.690186,53.003067 305.999664,53.003067 
	C305.999664,63.649105 305.999664,74.074554 305.999664,85.000000 
z"/>
<path fill="#FC7D67" opacity="1.000000" stroke="none" 
	d="
M13.000010,143.984467 
	C13.000010,113.532257 13.000010,83.576675 13.000010,53.311184 
	C19.329639,53.311184 25.388092,53.311184 31.930908,53.311184 
	C31.930908,67.065674 31.930908,80.792389 31.930908,94.755196 
	C46.343807,94.755196 60.280243,94.755196 74.699295,94.755196 
	C74.699295,81.172066 74.699295,67.445351 74.699295,53.361374 
	C81.223892,53.361374 87.284416,53.361374 93.675423,53.361374 
	C93.675423,87.294426 93.675423,121.338234 93.675423,155.691528 
	C87.663803,155.691528 81.607185,155.691528 75.064896,155.691528 
	C75.064896,140.594070 75.064896,125.536179 75.064896,110.242249 
	C60.652599,110.242249 46.716167,110.242249 32.298904,110.242249 
	C32.298904,125.165192 32.298904,140.224319 32.298904,155.639923 
	C25.775202,155.639923 19.714558,155.639923 13.000010,155.639923 
	C13.000010,152.007126 13.000010,148.244110 13.000010,143.984467 
z"/>
<path fill="#FC7D67" opacity="1.000000" stroke="none" 
	d="
M139.446564,155.541428 
	C139.112289,126.277344 139.112289,97.356125 139.112289,68.134338 
	C128.939316,68.134338 119.334160,68.134338 109.364723,68.134338 
	C109.364723,63.121155 109.364723,58.393867 109.364723,53.330765 
	C135.273407,53.330765 161.316711,53.330765 187.681488,53.330765 
	C187.681488,57.976826 187.681488,62.700909 187.681488,67.907303 
	C177.964798,67.907303 168.234619,67.907303 158.055725,67.907303 
	C158.055725,97.421730 158.055725,126.464691 158.055725,155.884293 
	C151.663040,155.884293 145.721939,155.884293 139.446564,155.541428 
z"/>
<path fill="#FC7D67" opacity="1.000000" stroke="none" 
	d="
M345.806824,53.001396 
	C350.161804,52.635941 348.957031,55.560818 348.961121,57.398869 
	C349.018372,83.221123 348.999969,109.043541 349.000000,134.865921 
	C349.000000,136.684235 349.000000,138.502533 349.000000,140.799835 
	C363.598572,140.799835 377.994720,140.799835 392.693115,140.799835 
	C392.693115,146.001175 392.693115,150.726379 392.693115,155.729370 
	C371.926086,155.729370 351.205048,155.729370 330.241608,155.729370 
	C330.241608,121.652306 330.241608,87.720428 330.241608,53.000656 
	C335.161987,53.000656 340.243744,53.000656 345.806824,53.001396 
z"/>
<path fill="#E84040" opacity="1.000000" stroke="none" 
	d="
M713.989014,227.422028 
	C715.967346,226.055450 718.058105,224.348297 720.280518,224.155045 
	C724.202576,223.813995 725.754150,222.323135 726.071838,218.348465 
	C727.165283,204.669235 728.647888,191.021652 729.869202,177.351913 
	C730.679138,168.286652 731.216370,159.197098 732.018250,150.131027 
	C733.198425,136.788605 734.713379,123.472809 735.701111,110.117218 
	C736.715027,96.407158 737.266418,82.662895 738.278076,68.350082 
	C739.027100,67.511627 739.518433,67.256699 740.304382,67.036362 
	C740.793945,67.104134 740.988892,67.137314 741.183838,67.170486 
	C739.496704,86.630524 737.746948,106.085426 736.149170,125.552795 
	C735.371277,135.029373 735.096313,144.550003 734.199829,154.013382 
	C733.049377,166.159012 731.340210,178.251541 730.178406,190.396286 
	C729.255798,200.039795 728.658447,209.720886 728.194092,219.398590 
	C728.004700,223.346558 727.404236,225.849945 722.478088,225.633820 
	C719.742065,225.513779 716.935425,227.000671 713.989014,227.422028 
z"/>
<path fill="#E84040" opacity="1.000000" stroke="none" 
	d="
M582.984314,229.966217 
	C590.169189,231.647186 597.349548,233.347794 604.540039,235.004349 
	C614.654602,237.334564 624.682251,240.421753 634.930969,241.648041 
	C641.097839,242.385910 647.672852,240.500366 653.957886,239.255554 
	C661.185669,237.824005 668.277222,235.718124 675.462097,234.052460 
	C683.171387,232.265213 690.909363,230.596436 698.656433,228.979279 
	C702.961060,228.080719 707.309692,227.392990 711.897339,226.870789 
	C711.083435,227.737976 710.078552,228.644623 708.927490,228.905136 
	C696.388855,231.742905 683.809448,234.401459 671.278320,237.271179 
	C662.941589,239.180374 654.706848,241.547333 646.348328,243.346100 
	C639.213623,244.881516 632.286743,244.118469 625.147034,241.900925 
	C616.387207,239.180176 607.173645,237.928253 598.166626,235.993134 
	C591.346313,234.527847 584.542175,232.986984 577.553345,231.009613 
	C577.911072,230.034805 578.446289,229.530136 579.303101,229.159119 
	C580.744568,229.517273 581.864441,229.741745 582.984314,229.966217 
z"/>
<path fill="#CF4446" opacity="1.000000" stroke="none" 
	d="
M744.963745,7.978988 
	C745.492249,3.835158 743.276001,2.968829 739.619263,2.979316 
	C703.390381,3.083217 667.161255,3.075228 630.035767,3.087474 
	C627.417908,3.099464 625.696411,3.122881 623.563721,3.111782 
	C621.779175,3.101975 620.405945,3.126684 618.629395,3.120535 
	C617.148987,3.109696 616.071716,3.129715 614.551758,3.112398 
	C611.737793,3.097191 609.366516,3.119321 606.662476,3.119164 
	C605.885498,3.110304 605.441284,3.123732 604.997131,3.137159 
	C583.183655,3.100695 561.370117,3.073548 539.556702,3.012040 
	C537.574097,3.006450 535.592224,2.780102 533.258911,2.419592 
	C554.364502,2.119972 575.821045,2.011081 597.277649,2.003348 
	C646.852478,1.985481 696.427246,2.016648 746.451904,2.112202 
	C746.948914,4.189118 746.996094,6.181760 746.666443,8.552331 
	C745.847717,8.613169 745.405701,8.296079 744.963745,7.978988 
z"/>
<path fill="#DF494A" opacity="1.000000" stroke="none" 
	d="
M744.712646,8.307016 
	C745.405701,8.296079 745.847717,8.613169 746.567261,8.972036 
	C745.494751,23.874918 744.144531,38.736023 742.164795,53.815128 
	C741.331787,54.015057 741.128418,53.996983 740.925049,53.978912 
	C742.103821,38.864288 743.282654,23.749666 744.712646,8.307016 
z"/>
<path fill="#DC4344" opacity="1.000000" stroke="none" 
	d="
M578.981506,229.025436 
	C578.446289,229.530136 577.911072,230.034805 577.232422,230.775146 
	C568.853760,229.314743 560.553833,227.869843 552.421204,225.775528 
	C549.850403,225.113541 547.293518,222.885941 549.953369,219.097778 
	C553.437805,225.255920 559.977966,224.734772 565.694275,226.012253 
	C568.541138,226.648438 571.378601,227.326462 574.964478,228.034851 
	C576.799561,228.397903 577.890564,228.711670 578.981506,229.025436 
z"/>
<path fill="#DC4344" opacity="1.000000" stroke="none" 
	d="
M546.011841,174.270432 
	C546.658813,174.512909 547.593506,175.121857 547.633362,175.784592 
	C547.988708,181.697220 548.186218,187.619339 548.139526,193.809326 
	C547.194153,187.607269 546.539429,181.134567 546.011841,174.270432 
z"/>
<path fill="#DC4344" opacity="1.000000" stroke="none" 
	d="
M542.057129,129.250732 
	C542.728394,129.424377 543.742371,129.948685 543.772522,130.524567 
	C544.087036,136.523743 544.243408,142.531219 544.168945,148.823059 
	C543.243896,142.614929 542.593567,136.120148 542.057129,129.250732 
z"/>
<path fill="#DC4344" opacity="1.000000" stroke="none" 
	d="
M543.613708,152.087311 
	C544.429932,154.428757 544.917114,156.995041 545.127930,159.838852 
	C544.329285,157.514969 543.806946,154.913544 543.613708,152.087311 
z"/>
<path fill="#DF494A" opacity="1.000000" stroke="none" 
	d="
M741.561035,66.940025 
	C740.988892,67.137314 740.793945,67.104134 740.299927,66.582405 
	C740.008911,63.072594 740.017029,60.051319 740.336914,57.021576 
	C741.064392,57.002407 741.480042,56.991707 741.895752,56.981007 
	C741.909912,60.223858 741.924133,63.466713 741.561035,66.940025 
z"/>
<path fill="#DC4344" opacity="1.000000" stroke="none" 
	d="
M548.996216,207.235992 
	C549.541504,210.124252 549.976501,213.343201 550.123169,216.828430 
	C549.518616,213.918716 549.202271,210.742691 548.996216,207.235992 
z"/>
<path fill="#DC4344" opacity="1.000000" stroke="none" 
	d="
M547.995850,197.435059 
	C551.609802,198.904449 549.652466,201.884460 549.163086,204.822998 
	C548.598022,202.700516 548.304504,200.283279 547.995850,197.435059 
z"/>
<path fill="#DC4344" opacity="1.000000" stroke="none" 
	d="
M544.975342,162.369720 
	C545.541748,165.135483 545.996826,168.345398 546.186646,171.835083 
	C545.568848,169.014526 545.216370,165.914215 544.975342,162.369720 
z"/>
<path fill="#CF4446" opacity="1.000000" stroke="none" 
	d="
M530.955688,6.241427 
	C531.381897,8.394472 531.681885,10.932332 531.954956,13.928123 
	C528.596375,12.219253 530.818054,9.266302 530.955688,6.241427 
z"/>
<path fill="#DC4344" opacity="1.000000" stroke="none" 
	d="
M540.994995,123.367966 
	C541.527832,124.215057 541.959717,125.426857 542.130859,126.863113 
	C541.544739,125.969276 541.219360,124.850975 540.994995,123.367966 
z"/>
<path fill="#E84040" opacity="1.000000" stroke="none" 
	d="
M741.976746,56.628548 
	C741.480042,56.991707 741.064392,57.002407 740.329041,56.641510 
	C740.007080,55.511135 740.004761,54.752350 740.002441,53.993568 
	C740.002441,53.993568 740.465027,53.984310 740.695068,53.981613 
	C741.128418,53.996983 741.331787,54.015057 741.838135,54.073486 
	C742.113342,54.834595 742.085510,55.555344 741.976746,56.628548 
z"/>
<path fill="#DC4344" opacity="1.000000" stroke="none" 
	d="
M547.702393,195.807556 
	C547.969482,195.920059 547.987122,196.139282 547.999512,196.688385 
	C547.813965,196.650269 547.633484,196.282272 547.702393,195.807556 
z"/>
<path fill="#CF4446" opacity="1.000000" stroke="none" 
	d="
M530.670532,3.894602 
	C530.954407,4.029725 530.964172,4.265073 530.956665,4.854751 
	C530.758301,4.804329 530.577332,4.399578 530.670532,3.894602 
z"/>
<path fill="#CF4446" opacity="1.000000" stroke="none" 
	d="
M530.972839,2.108106 
	C531.250305,2.319933 531.206848,2.486761 531.089600,2.902381 
	C530.657959,3.155123 530.367371,3.017355 530.088806,2.497593 
	C530.239746,2.192580 530.445801,2.127844 530.972839,2.108106 
z"/>
<path fill="#FD7A64" opacity="1.000000" stroke="none" 
	d="
M725.967773,108.988235 
	C725.651855,111.713341 725.335999,114.438446 724.983643,117.969658 
	C724.714111,120.522026 724.480957,122.268288 724.247803,124.014557 
	C724.205322,124.462227 724.162781,124.909897 724.074829,126.124924 
	C723.986877,128.915466 723.944336,130.938644 723.901733,132.961823 
	C723.614258,135.039749 723.326782,137.117676 723.006226,139.971741 
	C722.748535,142.169662 722.523926,143.591461 722.299316,145.013275 
	C722.221619,146.404388 722.143921,147.795517 722.035706,150.026810 
	C721.966614,152.563919 721.928040,154.260864 721.889404,155.957794 
	C721.619629,157.397095 721.349792,158.836380 721.047974,161.057526 
	C720.755737,164.231293 720.495483,166.623230 720.235229,169.015152 
	C720.164795,170.401978 720.094299,171.788818 719.996582,173.989532 
	C719.952820,175.866913 719.936340,176.930420 719.919922,177.993912 
	C719.641907,179.428833 719.363892,180.863770 719.056091,183.091675 
	C718.999512,185.590332 718.972778,187.295990 718.945984,189.001648 
	C718.647095,191.069885 718.348267,193.138138 718.013916,195.972626 
	C717.762085,198.159531 717.545776,199.580231 717.329407,201.000916 
	C717.231873,202.720413 717.134338,204.439911 717.003357,206.980225 
	C716.737610,209.870178 716.505310,211.939316 716.272949,214.008484 
	C715.722656,214.612000 715.172302,215.215515 714.002319,215.911560 
	C712.853271,216.288345 712.323914,216.572586 711.794495,216.856842 
	C705.756958,218.109634 699.719482,219.362427 693.008789,220.775604 
	C691.894958,220.976410 691.454285,221.016830 691.013611,221.057251 
	C689.900330,221.330673 688.787109,221.604095 687.092407,222.028610 
	C686.257202,222.407898 686.003418,222.636078 685.749695,222.864258 
	C684.054382,223.107407 682.359009,223.350525 679.986084,223.754562 
	C678.473328,224.229431 677.638306,224.543381 676.803223,224.857330 
	C676.099609,224.886627 675.395996,224.915939 674.096680,224.976166 
	C673.500977,225.007080 673.016907,225.081635 673.016907,225.081635 
	C672.465210,225.214737 671.913574,225.347839 670.829407,225.696838 
	C669.867737,225.963531 669.438477,226.014343 669.009277,226.065170 
	C668.456421,226.188965 667.903625,226.312759 666.844482,226.686981 
	C665.810791,227.222610 665.283386,227.507797 664.755920,227.792969 
	C663.753052,227.832108 662.750183,227.871262 660.986450,227.945984 
	C658.108154,228.615173 655.990723,229.248779 653.873352,229.882385 
	C653.455261,229.896255 653.037109,229.910095 652.001953,229.972504 
	C650.856506,230.301987 650.328125,230.582901 649.799683,230.863800 
	C649.397888,230.875641 648.996094,230.887482 647.991089,230.954529 
	C646.861145,231.286682 646.334473,231.563644 645.807800,231.840607 
	C643.538696,231.840607 641.269592,231.840607 638.869873,231.840607 
	C638.869873,223.084045 638.869873,214.568939 639.289795,205.535828 
	C654.334595,201.694168 668.968689,198.409760 683.572815,194.997284 
	C685.399658,194.570404 687.068481,193.466812 688.879272,192.397369 
	C689.087891,191.760880 689.227722,191.403793 689.699524,190.893250 
	C690.419312,184.495178 690.807129,178.250534 691.161133,171.633972 
	C691.220032,170.524689 691.312744,169.787369 691.730103,168.894363 
	C692.447693,162.164902 692.840759,155.591095 693.203247,148.685349 
	C693.252869,147.918411 693.333008,147.483429 693.739258,146.888672 
	C694.421326,140.817200 694.777222,134.905487 695.100830,128.623779 
	C695.154358,127.519508 695.240173,126.785233 695.658203,125.904160 
	C696.627747,123.238068 697.471497,120.750160 697.860474,118.193077 
	C698.733826,112.452133 697.460815,111.026451 691.521057,111.022400 
	C674.060425,111.010475 656.599792,111.068542 639.006836,110.895096 
	C638.695618,110.420486 638.476013,110.188545 638.203857,109.577095 
	C638.437500,96.789566 638.682983,84.420105 639.404175,72.032944 
	C658.000122,72.009880 676.120422,72.032089 694.240295,71.958595 
	C696.156677,71.950821 698.070801,71.380974 700.265869,70.806122 
	C700.762817,66.698265 700.979858,62.856186 701.162476,58.681786 
	C701.191467,57.910824 701.254944,57.472176 701.656738,56.885628 
	C702.596436,53.786404 703.434265,50.855400 703.690430,47.874409 
	C703.803040,46.564411 702.730774,45.152603 702.014343,43.433537 
	C699.952820,42.731033 698.074829,42.086697 696.194031,42.078640 
	C677.141846,41.997036 658.089294,42.019379 639.036804,42.012562 
	C638.991455,33.686180 639.029480,25.358063 638.856506,17.034332 
	C638.793823,14.017649 639.880798,12.943556 642.914551,12.951283 
	C671.896484,13.025099 700.878906,13.061008 729.860474,12.938864 
	C735.861694,12.913570 733.927979,16.915096 733.724915,19.837507 
	C732.908264,31.589600 731.892761,43.327877 730.729553,55.797981 
	C730.361450,57.694847 730.214539,58.864994 730.031616,60.406296 
	C730.016785,61.523525 730.037903,62.269596 730.059082,63.015667 
	C729.815796,63.167809 729.611755,63.361336 728.938354,63.834351 
	C723.124023,66.597160 725.693298,71.380783 725.533447,75.905525 
	C721.006042,72.543442 717.664612,73.945808 714.810181,77.497467 
	C712.044373,80.938957 713.281189,84.278397 715.787537,86.927711 
	C719.021240,90.345863 723.159058,88.978622 727.071533,88.343452 
	C727.139893,89.117874 727.192871,89.558807 727.245911,89.999733 
	C727.170227,91.392876 727.094604,92.786026 726.996582,94.980072 
	C726.744202,97.523941 726.514282,99.266914 726.284302,101.009888 
	C726.186401,103.049942 726.088501,105.089996 725.977539,107.813354 
	C725.964417,108.496674 725.967773,108.988235 725.967773,108.988235 
M703.216064,104.511955 
	C701.720398,106.469818 702.527710,108.330322 704.565308,107.345757 
	C707.005554,106.166626 709.219727,103.697144 710.498108,101.247101 
	C711.253662,99.799080 710.649109,96.164894 709.525146,95.536476 
	C707.518677,94.414581 704.653015,94.627510 702.152466,94.665962 
	C700.631226,94.689362 699.120972,95.431305 697.605774,95.850479 
	C697.347046,95.396301 697.088318,94.942123 696.829590,94.487938 
	C697.946167,93.241707 699.157043,92.063789 700.133972,90.716324 
	C700.536682,90.160950 700.748291,89.090057 700.476685,88.530182 
	C700.211609,87.983551 698.708923,87.388527 698.621582,87.499748 
	C696.693359,89.954552 693.871460,92.303307 693.318970,95.088638 
	C692.661560,98.403122 695.358337,100.412209 699.080933,100.001602 
	C701.562744,99.727859 704.048767,99.492920 706.532837,99.240608 
	C706.743652,99.663551 706.954407,100.086494 707.165161,100.509438 
	C706.041870,101.712944 704.918579,102.916458 703.216064,104.511955 
M715.026367,90.815216 
	C713.881897,89.057838 713.041748,86.945045 711.513062,85.636429 
	C709.752319,84.129074 707.383240,83.332176 705.278381,82.226753 
	C704.748657,83.665169 703.752686,85.118225 703.797241,86.538605 
	C703.865845,88.724358 712.647644,96.000938 715.132935,95.839569 
	C716.634521,95.742073 718.057495,94.433067 719.515747,93.668434 
	C718.267212,92.762207 717.018738,91.855980 715.026367,90.815216 
z"/>
<path fill="#F8F5F5" opacity="1.000000" stroke="none" 
	d="
M585.041382,139.338013 
	C584.136963,131.604538 583.069519,123.886017 582.358582,116.134796 
	C580.184509,92.431107 578.147461,68.714851 576.471313,44.550777 
	C577.619324,43.952900 578.353210,43.807728 579.549438,43.683662 
	C599.279846,43.672897 618.547974,43.641018 638.106201,43.754402 
	C638.600037,43.973015 638.803589,44.046360 638.935303,44.522804 
	C638.307190,53.432083 635.411621,62.135029 640.640625,70.243767 
	C639.839478,70.507309 639.380676,70.652870 638.489502,70.618660 
	C628.676636,70.382187 619.295044,70.245926 609.917114,70.376305 
	C608.828125,70.391449 607.759644,71.884201 606.585205,72.876869 
	C606.589050,73.450462 606.689331,73.839104 606.789429,74.677826 
	C607.609009,83.751526 608.428650,92.375145 609.212524,101.329979 
	C609.256104,102.095840 609.335449,102.530479 609.330017,103.370407 
	C609.728149,106.637817 610.211060,109.499947 611.074341,112.566124 
	C620.093811,112.688438 628.732910,112.606697 637.636963,112.549347 
	C638.242249,112.480286 638.582703,112.386818 638.920715,112.479141 
	C638.918274,112.664932 638.992310,113.029106 638.991211,113.455215 
	C638.994507,122.218727 638.998962,130.556137 638.620667,138.947754 
	C637.479980,139.111725 636.721924,139.221466 635.498047,139.292603 
	C618.368530,139.282013 601.704956,139.310013 585.041382,139.338013 
z"/>
<path fill="#F8F4F3" opacity="1.000000" stroke="none" 
	d="
M637.056091,203.887390 
	C622.559448,200.205139 608.079834,196.453506 593.552673,192.895905 
	C590.439819,192.133575 588.850037,191.080353 588.646484,187.429428 
	C588.101685,177.656509 586.980896,167.915710 586.011536,157.316132 
	C595.370789,157.316132 604.385132,157.316132 614.016602,157.316132 
	C614.246460,159.673691 614.937317,162.630173 614.721802,165.519058 
	C614.401367,169.814941 616.411194,171.242111 620.254578,171.981781 
	C625.958130,173.079468 631.559509,174.708511 637.851562,176.159134 
	C638.667053,176.150696 638.835266,176.094498 639.215942,176.169388 
	C639.428406,176.300491 639.867920,176.537567 639.698486,176.835526 
	C639.043823,184.814667 638.471802,192.492554 638.180054,200.181091 
	C638.142517,201.171967 639.558167,202.218002 640.024902,203.435638 
	C638.851440,203.717667 637.953796,203.802521 637.056091,203.887390 
z"/>
<path fill="#F67B65" opacity="1.000000" stroke="none" 
	d="
M639.867920,176.537567 
	C639.867920,176.537567 639.428406,176.300491 639.155273,175.915024 
	C638.821960,175.365997 638.761780,175.202454 638.701599,175.038910 
	C638.701599,175.038910 638.826477,174.970703 639.047363,174.876389 
	C639.163879,174.514816 639.059448,174.247543 638.955078,173.980270 
	C638.942810,172.920410 638.930542,171.860535 639.342896,170.399414 
	C643.303772,169.940018 645.335083,169.162094 644.343872,164.645126 
	C643.604065,161.274155 646.768433,159.477432 650.356873,160.051926 
	C651.763489,160.277130 653.353088,159.359085 654.859375,158.961700 
	C654.776306,158.441208 654.693298,157.920715 654.610229,157.400208 
	C649.397400,154.930511 644.184570,152.460815 638.963196,149.608688 
	C638.882874,148.464386 638.811096,147.702484 638.739258,146.940582 
	C638.550537,145.853943 638.361816,144.767288 638.135864,143.125244 
	C638.098572,142.569855 638.087891,142.116272 638.223145,141.987427 
	C638.404785,141.743866 638.515686,141.606125 638.484680,141.518967 
	C638.404724,141.294754 638.261963,141.092957 637.988037,140.655670 
	C637.209167,140.063156 636.586548,139.697174 635.963928,139.331207 
	C636.721924,139.221466 637.479980,139.111725 639.079956,139.039551 
	C644.948486,139.045868 649.974976,139.014603 655.397827,139.065521 
	C656.865417,139.066971 657.936707,138.986221 659.401123,138.994446 
	C660.863403,139.049820 661.932556,139.016174 663.351196,139.090332 
	C664.375122,139.474625 665.049500,139.751129 665.593018,140.461700 
	C665.216797,143.624725 664.971375,146.353683 664.550964,149.269104 
	C664.412964,150.252213 664.449951,151.048874 664.597351,152.125916 
	C664.777100,152.594864 664.846436,152.783401 664.726868,153.230469 
	C664.531250,154.330978 664.524536,155.172958 664.388672,156.451492 
	C663.972412,160.034424 663.420227,163.184708 663.466919,166.326111 
	C663.522522,170.075668 661.791077,171.446976 658.292847,172.126511 
	C652.099304,173.329605 646.004211,175.039673 639.867920,176.537567 
M648.034180,146.500320 
	C648.240723,147.459885 648.422119,148.425705 648.658264,149.377930 
	C649.715759,153.641586 652.970398,155.867966 656.708435,154.690323 
	C659.225891,153.897247 662.089844,150.777527 662.709290,148.197113 
	C663.619263,144.405975 660.185608,141.868729 656.748718,141.179092 
	C653.084412,140.443802 648.859253,140.184952 648.034180,146.500320 
z"/>
<path fill="#FE3D40" opacity="1.000000" stroke="none" 
	d="
M614.994507,3.149734 
	C616.071716,3.129715 617.148987,3.109696 618.619873,3.502572 
	C620.125000,6.103163 621.191772,8.317153 622.432373,10.429007 
	C622.532532,10.599462 624.467834,10.066440 624.467163,9.863780 
	C624.460510,7.786014 624.230713,5.708885 624.059509,3.631891 
	C624.046021,3.468813 624.003845,3.308104 623.974976,3.146297 
	C625.696411,3.122881 627.417908,3.099464 629.568054,3.119239 
	C629.995605,4.822009 630.100037,6.489673 629.973694,8.139666 
	C629.573425,13.367290 624.775879,16.308231 619.997803,14.315644 
	C619.026855,13.910736 618.058044,13.500605 616.509644,12.849609 
	C620.760254,19.583483 620.702942,20.689749 616.375793,24.058990 
	C612.756104,26.877375 608.394470,26.866234 605.896667,23.065542 
	C604.508850,20.953812 604.946838,17.619038 604.641479,14.826778 
	C604.416443,12.768682 604.182434,10.694611 604.210754,8.631199 
	C604.232971,7.014249 604.650940,5.402736 604.945129,3.462986 
	C605.441284,3.123732 605.885498,3.110304 606.677246,3.461406 
	C609.330750,6.404109 611.636536,8.982282 613.942383,11.560455 
	C614.293091,11.362371 614.643799,11.164289 614.994507,10.966206 
	C614.994507,8.360715 614.994507,5.755224 614.994507,3.149734 
M610.097717,20.495735 
	C611.323059,20.183384 612.548401,19.871031 613.773743,19.558674 
	C612.992065,18.376593 612.364624,17.030724 611.360474,16.084900 
	C610.892883,15.644541 609.694397,15.980170 608.827271,15.964040 
	C609.031433,17.358345 609.235596,18.752649 610.097717,20.495735 
z"/>
<path fill="#FE3D40" opacity="1.000000" stroke="none" 
	d="
M598.002441,41.970150 
	C595.414856,36.595787 592.734863,31.262352 590.320740,25.811174 
	C589.858643,24.767750 589.986267,22.868046 590.668640,22.072695 
	C591.418457,21.198715 593.406677,20.454079 594.366089,20.847178 
	C599.874207,23.104101 605.237122,25.715565 610.649292,28.206764 
	C610.728882,28.762798 610.808533,29.318834 610.888184,29.874870 
	C609.402283,30.314800 607.811584,31.335175 606.449585,31.089106 
	C601.804810,30.249947 599.923706,31.998499 600.372803,36.862793 
	C600.507019,38.316231 599.710632,39.855572 598.919678,41.667389 
	C598.498840,41.979229 598.002441,41.970146 598.002441,41.970150 
z"/>
<path fill="#FE816B" opacity="1.000000" stroke="none" 
	d="
M727.056152,88.009964 
	C723.159058,88.978622 719.021240,90.345863 715.787537,86.927711 
	C713.281189,84.278397 712.044373,80.938957 714.810181,77.497467 
	C717.664612,73.945808 721.006042,72.543442 725.533447,75.905525 
	C725.693298,71.380783 723.124023,66.597160 728.812988,64.005684 
	C729.385376,64.444885 729.574463,64.950867 729.645874,65.957901 
	C729.416809,67.314133 729.305420,68.169296 729.194031,69.024460 
	C729.161194,69.463974 729.128296,69.903481 729.086975,70.920029 
	C729.078491,71.497063 729.139526,71.988892 729.139526,71.988892 
	C729.115784,72.442696 729.092041,72.896492 728.990845,74.077644 
	C728.676270,77.212051 728.439270,79.619102 728.202271,82.026154 
	C728.166809,82.469551 728.131348,82.912941 728.015137,84.023651 
	C727.641602,85.797302 727.348877,86.903633 727.056152,88.009964 
M719.018555,78.748154 
	C718.707214,79.489899 717.923828,80.524918 718.169617,80.920547 
	C719.046509,82.332108 720.199402,83.610237 721.449707,84.709183 
	C721.629150,84.866905 723.650146,83.545158 723.571106,83.279686 
	C723.110229,81.732201 722.371155,80.236740 721.509277,78.859337 
	C721.268188,78.474159 720.294373,78.547501 719.018555,78.748154 
z"/>
<path fill="#FB4144" opacity="1.000000" stroke="none" 
	d="
M579.303101,229.159119 
	C577.890564,228.711670 576.799561,228.397903 575.372070,228.029663 
	C574.019104,226.767151 573.000244,225.561203 571.987000,224.350632 
	C570.507874,222.583450 568.856934,220.922729 567.647583,218.986542 
	C567.202148,218.273392 567.802734,216.906876 567.926208,215.838379 
	C568.933655,216.049332 570.252014,215.932114 570.888123,216.534912 
	C572.558411,218.117783 573.931580,220.014297 576.134521,222.630722 
	C576.924316,218.603317 577.435120,215.998383 578.209167,212.051407 
	C579.921143,216.001862 580.363831,219.096863 582.145447,220.547058 
	C583.899780,221.975037 587.011230,221.735748 589.527161,222.228027 
	C589.606018,222.859726 589.684814,223.491409 589.763672,224.123108 
	C587.083740,224.834351 584.403809,225.545578 581.557556,226.300964 
	C581.869934,226.997910 582.385742,228.148865 582.942932,229.633011 
	C581.864441,229.741745 580.744568,229.517273 579.303101,229.159119 
z"/>
<path fill="#FD806A" opacity="1.000000" stroke="none" 
	d="
M638.971802,149.991104 
	C644.184570,152.460815 649.397400,154.930511 654.610229,157.400208 
	C654.693298,157.920715 654.776306,158.441208 654.859375,158.961700 
	C653.353088,159.359085 651.763489,160.277130 650.356873,160.051926 
	C646.768433,159.477432 643.604065,161.274155 644.343872,164.645126 
	C645.335083,169.162094 643.303772,169.940018 639.369812,170.002686 
	C638.714050,167.274857 638.455811,164.542465 638.369507,161.085205 
	C638.684937,156.903931 638.828369,153.447510 638.971802,149.991104 
z"/>
<path fill="#E7897D" opacity="1.000000" stroke="none" 
	d="
M639.007080,44.119705 
	C638.803589,44.046360 638.600037,43.973015 638.156555,43.494453 
	C638.037415,42.758373 638.158081,42.427505 638.278748,42.096634 
	C638.278748,42.096630 638.659729,42.075073 638.848267,42.043816 
	C658.089294,42.019379 677.141846,41.997036 696.194031,42.078640 
	C698.074829,42.086697 699.952820,42.731033 701.970703,43.481869 
	C702.109253,43.883690 702.022827,43.977871 701.683472,43.943657 
	C700.894958,43.966236 700.445801,44.023033 699.531982,44.015778 
	C679.047180,44.007713 659.027100,44.063709 639.007080,44.119705 
z"/>
<path fill="#DC3233" opacity="1.000000" stroke="none" 
	d="
M637.785278,42.063271 
	C638.158081,42.427505 638.037415,42.758373 637.866333,43.349190 
	C618.547974,43.641018 599.279846,43.672897 579.293457,43.494865 
	C577.732910,43.225670 576.890686,43.166382 576.048462,43.107094 
	C580.238953,42.738529 584.424194,42.281765 588.621765,42.032349 
	C591.427063,41.865662 594.249878,41.993862 597.533630,41.980125 
	C598.002441,41.970146 598.498840,41.979229 598.746948,41.973373 
	C611.760681,41.988308 624.526184,42.009106 637.785278,42.063271 
z"/>
<path fill="#E93032" opacity="1.000000" stroke="none" 
	d="
M638.087891,142.116272 
	C638.087891,142.116272 638.098572,142.569855 638.078369,142.796051 
	C635.960999,142.348267 633.871033,141.117508 631.765625,141.090607 
	C618.005432,140.914825 604.241638,141.033157 590.479614,140.957108 
	C588.759644,140.947617 587.042786,140.360779 585.182983,139.689728 
	C601.704956,139.310013 618.368530,139.282013 635.498047,139.292603 
	C636.586548,139.697174 637.209167,140.063156 637.948608,140.963440 
	C638.072815,141.703903 638.080322,141.910080 638.087891,142.116272 
z"/>
<path fill="#EE8D7E" opacity="1.000000" stroke="none" 
	d="
M637.228882,204.110168 
	C637.953796,203.802521 638.851440,203.717667 640.416748,203.409363 
	C642.711731,202.860153 644.345703,202.563568 645.965637,202.204086 
	C660.248657,199.034668 674.529236,195.854065 688.810486,192.676758 
	C687.068481,193.466812 685.399658,194.570404 683.572815,194.997284 
	C668.968689,198.409760 654.334595,201.694168 639.292786,205.075638 
	C638.384460,204.866638 637.893066,204.599792 637.228882,204.110168 
z"/>
<path fill="#F14143" opacity="1.000000" stroke="none" 
	d="
M730.067627,60.035149 
	C730.214539,58.864994 730.361450,57.694847 730.742676,56.259899 
	C732.921204,57.147297 734.865479,58.299496 737.035828,59.585663 
	C737.777405,57.815521 738.538208,55.999493 739.650757,54.088516 
	C740.004761,54.752350 740.007080,55.511135 740.017273,56.649982 
	C740.017029,60.051319 740.008911,63.072594 740.005249,66.547821 
	C739.518433,67.256699 739.027100,67.511627 738.284851,67.881317 
	C735.917480,66.024475 733.801086,64.052872 731.314819,61.750832 
	C730.652527,60.958645 730.360046,60.496902 730.067627,60.035149 
z"/>
<path fill="#FB4144" opacity="1.000000" stroke="none" 
	d="
M638.963257,149.608688 
	C638.828369,153.447510 638.684937,156.903931 638.308716,160.690277 
	C636.126770,157.325851 631.187439,154.064117 636.919067,148.986099 
	C637.617249,148.100159 637.781799,147.563873 637.946411,147.027588 
	C637.946411,147.027603 638.345337,146.984497 638.542297,146.962540 
	C638.811096,147.702484 638.882874,148.464386 638.963257,149.608688 
z"/>
<path fill="#E84040" opacity="1.000000" stroke="none" 
	d="
M728.541870,81.896927 
	C728.439270,79.619102 728.676270,77.212051 729.003601,74.418304 
	C729.023071,76.610313 728.952209,79.189003 728.541870,81.896927 
z"/>
<path fill="#E84040" opacity="1.000000" stroke="none" 
	d="
M720.569946,168.885651 
	C720.495483,166.623230 720.755737,164.231293 721.061096,161.439636 
	C721.039001,163.611984 720.971802,166.184052 720.569946,168.885651 
z"/>
<path fill="#E84040" opacity="1.000000" stroke="none" 
	d="
M716.597656,213.882080 
	C716.505310,211.939316 716.737610,209.870178 717.012695,207.411804 
	C717.011169,209.266937 716.966797,211.511322 716.597656,213.882080 
z"/>
<path fill="#E84040" opacity="1.000000" stroke="none" 
	d="
M727.071533,88.343460 
	C727.348877,86.903633 727.641602,85.797302 728.018799,84.357391 
	C728.029663,85.940056 727.956116,87.856293 727.564209,89.886131 
	C727.192871,89.558807 727.139893,89.117874 727.071533,88.343460 
z"/>
<path fill="#E84040" opacity="1.000000" stroke="none" 
	d="
M724.568054,123.896378 
	C724.480957,122.268288 724.714111,120.522026 724.986938,118.396545 
	C724.980469,119.937622 724.934387,121.857910 724.568054,123.896378 
z"/>
<path fill="#E84040" opacity="1.000000" stroke="none" 
	d="
M654.277100,229.914474 
	C655.990723,229.248779 658.108154,228.615173 660.611694,227.981628 
	C658.892151,228.636658 656.786499,229.291626 654.277100,229.914474 
z"/>
<path fill="#E84040" opacity="1.000000" stroke="none" 
	d="
M726.600220,100.889648 
	C726.514282,99.266914 726.744202,97.523941 727.004578,95.399170 
	C726.995361,96.934715 726.955688,98.852058 726.600220,100.889648 
z"/>
<path fill="#E84040" opacity="1.000000" stroke="none" 
	d="
M717.630981,200.889191 
	C717.545776,199.580231 717.762085,198.159531 718.025757,196.377197 
	C718.026184,197.602859 717.979309,199.190170 717.630981,200.889191 
z"/>
<path fill="#E84040" opacity="1.000000" stroke="none" 
	d="
M724.178101,132.706833 
	C723.944336,130.938644 723.986877,128.915466 724.074341,126.462372 
	C724.230957,128.172241 724.342712,130.312042 724.178101,132.706833 
z"/>
<path fill="#E84040" opacity="1.000000" stroke="none" 
	d="
M722.604004,144.900986 
	C722.523926,143.591461 722.748535,142.169662 723.016968,140.386230 
	C723.010071,141.612656 722.959412,143.200668 722.604004,144.900986 
z"/>
<path fill="#E84040" opacity="1.000000" stroke="none" 
	d="
M722.163940,155.717926 
	C721.928040,154.260864 721.966614,152.563919 722.046631,150.445526 
	C722.204895,151.842056 722.321716,153.660065 722.163940,155.717926 
z"/>
<path fill="#E84040" opacity="1.000000" stroke="none" 
	d="
M719.204590,188.745178 
	C718.972778,187.295990 718.999512,185.590332 719.069458,183.463257 
	C719.229492,184.857468 719.346313,186.673080 719.204590,188.745178 
z"/>
<path fill="#E84040" opacity="1.000000" stroke="none" 
	d="
M729.467285,68.955017 
	C729.305420,68.169296 729.416809,67.314133 729.741943,66.210304 
	C729.884033,66.936287 729.812317,67.910934 729.467285,68.955017 
z"/>
<path fill="#E84040" opacity="1.000000" stroke="none" 
	d="
M720.172363,177.778961 
	C719.936340,176.930420 719.952820,175.866913 720.003906,174.406616 
	C720.167297,175.194550 720.296021,176.379272 720.172363,177.778961 
z"/>
<path fill="#E7897D" opacity="1.000000" stroke="none" 
	d="
M576.042236,43.368187 
	C576.890686,43.166382 577.732910,43.225670 578.831116,43.473755 
	C578.353210,43.807728 577.619324,43.952900 576.508911,44.120354 
	C576.100342,43.971519 576.068237,43.800400 576.042236,43.368187 
z"/>
<path fill="#E84040" opacity="1.000000" stroke="none" 
	d="
M730.031616,60.406307 
	C730.360046,60.496902 730.652527,60.958645 730.976135,61.702370 
	C730.885620,62.285385 730.701660,62.541679 730.257202,62.884453 
	C730.037903,62.269596 730.016785,61.523525 730.031616,60.406307 
z"/>
<path fill="#E84040" opacity="1.000000" stroke="none" 
	d="
M677.161133,224.892700 
	C677.638306,224.543381 678.473328,224.229431 679.653564,223.911102 
	C679.172119,224.247147 678.345581,224.587601 677.161133,224.892700 
z"/>
<path fill="#E84040" opacity="1.000000" stroke="none" 
	d="
M712.112671,216.870407 
	C712.323914,216.572586 712.853271,216.288345 713.688416,215.983994 
	C713.473022,216.270584 712.951965,216.577286 712.112671,216.870407 
z"/>
<path fill="#E84040" opacity="1.000000" stroke="none" 
	d="
M691.180298,221.247894 
	C691.454285,221.016830 691.894958,220.976410 692.668152,220.932037 
	C692.449463,221.098221 691.898193,221.268387 691.180298,221.247894 
z"/>
<path fill="#E84040" opacity="1.000000" stroke="none" 
	d="
M669.177185,226.254745 
	C669.438477,226.014343 669.867737,225.963531 670.620361,225.894196 
	C670.410889,226.065231 669.877991,226.254776 669.177185,226.254745 
z"/>
<path fill="#E84040" opacity="1.000000" stroke="none" 
	d="
M665.082031,227.819763 
	C665.283386,227.507797 665.810791,227.222610 666.639282,226.887054 
	C666.429626,227.173325 665.918884,227.509918 665.082031,227.819763 
z"/>
<path fill="#E84040" opacity="1.000000" stroke="none" 
	d="
M650.116150,230.876556 
	C650.328125,230.582901 650.856506,230.301987 651.689575,230.002380 
	C651.473633,230.285568 650.953125,230.587448 650.116150,230.876556 
z"/>
<path fill="#E84040" opacity="1.000000" stroke="none" 
	d="
M646.123413,231.857224 
	C646.334473,231.563644 646.861145,231.286682 647.691284,230.988312 
	C647.476135,231.269211 646.957581,231.571533 646.123413,231.857224 
z"/>
<path fill="#E93032" opacity="1.000000" stroke="none" 
	d="
M637.729065,147.210388 
	C637.781799,147.563873 637.617249,148.100159 637.228760,148.815552 
	C637.173828,148.460831 637.342773,147.927002 637.729065,147.210388 
z"/>
<path fill="#FB4144" opacity="1.000000" stroke="none" 
	d="
M638.547363,175.172623 
	C638.761780,175.202454 638.821960,175.365997 638.942871,175.783920 
	C638.835266,176.094498 638.667053,176.150696 638.249390,176.114487 
	C638.070923,175.750443 638.202026,175.511856 638.547363,175.172623 
z"/>
<path fill="#FD806A" opacity="1.000000" stroke="none" 
	d="
M638.943726,174.225433 
	C639.059448,174.247543 639.163879,174.514816 639.118286,174.871094 
	C638.968384,174.960114 638.932312,174.470581 638.943726,174.225433 
z"/>
<path fill="#E84040" opacity="1.000000" stroke="none" 
	d="
M686.005676,222.800293 
	C686.003418,222.636078 686.257202,222.407898 686.752686,222.092682 
	C686.750183,222.249237 686.505920,222.492783 686.005676,222.800293 
z"/>
<path fill="#E84040" opacity="1.000000" stroke="none" 
	d="
M729.259644,71.886292 
	C729.139526,71.988892 729.078491,71.497063 729.102478,71.250557 
	C729.451294,71.202393 729.535706,71.462273 729.259644,71.886292 
z"/>
<path fill="#E84040" opacity="1.000000" stroke="none" 
	d="
M673.120667,225.208374 
	C673.016907,225.081635 673.500977,225.007080 673.745728,225.006409 
	C673.990540,225.005737 673.673706,225.364746 673.673706,225.364746 
	C673.673706,225.364746 673.224426,225.335114 673.120667,225.208374 
z"/>
<path fill="#E84040" opacity="1.000000" stroke="none" 
	d="
M726.115417,108.899231 
	C725.967773,108.988235 725.964417,108.496674 725.985962,108.251923 
	C726.147888,108.175552 726.307617,108.332718 726.415894,108.519676 
	C726.445129,108.570145 726.318298,108.710922 726.115417,108.899231 
z"/>
<path fill="#FC3435" opacity="1.000000" stroke="none" 
	d="
M614.551758,3.112397 
	C614.994507,5.755224 614.994507,8.360715 614.994507,10.966206 
	C614.643799,11.164289 614.293091,11.362371 613.942383,11.560455 
	C611.636536,8.982282 609.330750,6.404109 607.010071,3.483693 
	C609.366516,3.119321 611.737793,3.097191 614.551758,3.112397 
z"/>
<path fill="#FC3435" opacity="1.000000" stroke="none" 
	d="
M623.563721,3.111781 
	C624.003845,3.308104 624.046021,3.468813 624.059509,3.631891 
	C624.230713,5.708885 624.460510,7.786014 624.467163,9.863780 
	C624.467834,10.066440 622.532532,10.599462 622.432373,10.429007 
	C621.191772,8.317153 620.125000,6.103163 619.023071,3.533430 
	C620.405945,3.126684 621.779175,3.101975 623.563721,3.111781 
z"/>
<path fill="#FEFDFD" opacity="1.000000" stroke="none" 
	d="
M688.879272,192.397369 
	C674.529236,195.854065 660.248657,199.034668 645.965637,202.204086 
	C644.345703,202.563568 642.711731,202.860153 640.692444,203.212189 
	C639.558167,202.218002 638.142517,201.171967 638.180054,200.181091 
	C638.471802,192.492554 639.043823,184.814667 639.698486,176.835526 
	C646.004211,175.039673 652.099304,173.329605 658.292847,172.126511 
	C661.791077,171.446976 663.522522,170.075668 663.466919,166.326111 
	C663.420227,163.184708 663.972412,160.034424 664.656738,156.348511 
	C665.007874,154.863281 664.961792,153.917618 664.915771,152.971939 
	C664.846436,152.783401 664.777100,152.594864 664.735474,151.798859 
	C664.750793,150.488480 664.738342,149.785568 664.725952,149.082642 
	C664.971375,146.353683 665.216797,143.624725 665.901367,140.435791 
	C667.364990,138.637039 668.389465,137.298233 669.413940,135.959442 
	C668.173462,135.041122 666.932922,134.122803 665.692444,133.204498 
	C664.795532,135.130524 663.898621,137.056534 663.001648,138.982544 
	C661.932556,139.016174 660.863403,139.049820 659.399292,138.600693 
	C658.415344,136.837036 657.826355,135.556152 657.237427,134.275238 
	C656.492126,135.844589 655.746826,137.413956 655.001526,138.983322 
	C649.974976,139.014603 644.948486,139.045868 639.462646,138.985336 
	C638.998962,130.556137 638.994507,122.218727 639.455200,113.376617 
	C652.281311,112.930702 664.642456,112.989479 677.016235,113.415619 
	C678.242859,114.759102 679.456787,115.735222 680.670654,116.711349 
	C681.110962,115.471832 681.551270,114.232315 682.391602,112.927597 
	C684.934387,112.998062 687.077087,113.133728 689.159729,113.687309 
	C689.566650,114.970131 690.033691,115.835037 690.500793,116.699936 
	C691.332520,115.482895 692.164246,114.265862 693.331543,112.991348 
	C694.117126,112.977806 694.567139,113.021744 695.125244,113.256653 
	C695.415222,113.685722 695.643616,113.864372 695.972778,114.403702 
	C695.793396,118.566200 695.559692,122.308578 695.325989,126.050957 
	C695.240173,126.785233 695.154358,127.519508 694.977600,129.019989 
	C694.395508,135.540283 693.904358,141.294373 693.413147,147.048462 
	C693.333008,147.483429 693.252869,147.918411 693.081787,149.082703 
	C692.462463,156.224686 691.933960,162.637360 691.405518,169.050034 
	C691.312744,169.787369 691.220032,170.524689 691.031250,172.028885 
	C690.412659,178.879410 689.890137,184.963074 689.367554,191.046722 
	C689.227722,191.403793 689.087891,191.760880 688.879272,192.397369 
z"/>
<path fill="#FFFFFE" opacity="1.000000" stroke="none" 
	d="
M638.935303,44.522804 
	C659.027100,44.063709 679.047180,44.007713 699.583679,44.307182 
	C700.677612,45.111801 701.255127,45.560959 701.884521,46.430321 
	C701.730347,50.244858 701.524414,53.639194 701.318481,57.033531 
	C701.254944,57.472176 701.191467,57.910824 701.035522,59.070084 
	C700.561340,62.870064 700.179504,65.949440 699.627991,69.145035 
	C699.249146,69.447632 699.094055,69.671448 699.030823,70.098251 
	C699.068665,70.263802 699.209351,70.572891 698.735168,70.492615 
	C679.168335,70.316818 660.075745,70.221306 640.983093,70.125786 
	C635.411621,62.135029 638.307190,53.432083 638.935303,44.522804 
z"/>
<path fill="#FD3435" opacity="1.000000" stroke="none" 
	d="
M609.414795,102.965118 
	C609.335449,102.530479 609.256104,102.095840 609.431091,100.984604 
	C609.225403,93.052475 609.042236,85.765381 608.219238,78.551262 
	C607.542664,72.620209 607.795410,71.929962 613.877747,71.940475 
	C622.199097,71.954865 630.520264,72.020004 638.865662,72.075546 
	C638.889771,72.087700 638.928406,72.050636 638.928406,72.050636 
	C638.682983,84.420105 638.437500,96.789566 637.857361,109.843750 
	C631.554321,110.707275 625.580688,110.784233 619.619263,111.096329 
	C614.628540,111.357605 610.000854,111.470139 610.702087,104.308113 
	C610.741394,103.906303 609.864990,103.414841 609.414795,102.965118 
z"/>
<path fill="#FE816B" opacity="1.000000" stroke="none" 
	d="
M703.505676,104.315964 
	C704.918579,102.916458 706.041870,101.712944 707.165161,100.509438 
	C706.954407,100.086494 706.743652,99.663551 706.532837,99.240608 
	C704.048767,99.492920 701.562744,99.727859 699.080933,100.001602 
	C695.358337,100.412209 692.661560,98.403122 693.318970,95.088638 
	C693.871460,92.303307 696.693359,89.954552 698.621582,87.499748 
	C698.708923,87.388527 700.211609,87.983551 700.476685,88.530182 
	C700.748291,89.090057 700.536682,90.160950 700.133972,90.716324 
	C699.157043,92.063789 697.946167,93.241707 696.829590,94.487938 
	C697.088318,94.942123 697.347046,95.396301 697.605774,95.850479 
	C699.120972,95.431305 700.631226,94.689362 702.152466,94.665962 
	C704.653015,94.627510 707.518677,94.414581 709.525146,95.536476 
	C710.649109,96.164894 711.253662,99.799080 710.498108,101.247101 
	C709.219727,103.697144 707.005554,106.166626 704.565308,107.345757 
	C702.527710,108.330322 701.720398,106.469818 703.505676,104.315964 
z"/>
<path fill="#EE8D7E" opacity="1.000000" stroke="none" 
	d="
M677.003540,113.048264 
	C664.642456,112.989479 652.281311,112.930702 639.456299,112.950516 
	C638.992310,113.029106 638.918274,112.664932 638.964233,112.178543 
	C639.053162,111.494507 639.096130,111.296860 639.139160,111.099213 
	C656.599792,111.068542 674.060425,111.010475 691.521057,111.022400 
	C697.460815,111.026451 698.733826,112.452133 697.860474,118.193077 
	C697.471497,120.750160 696.627747,123.238068 695.658203,125.904160 
	C695.559692,122.308578 695.793396,118.566200 695.947693,114.153816 
	C695.584534,113.344429 695.300842,113.205055 695.017151,113.065689 
	C694.567139,113.021744 694.117126,112.977806 693.010437,112.914413 
	C691.309143,113.019768 690.264465,113.144585 689.219849,113.269394 
	C687.077087,113.133728 684.934387,112.998062 681.978760,112.863922 
	C679.778503,112.926376 678.390991,112.987312 677.003540,113.048264 
z"/>
<path fill="#E77763" opacity="1.000000" stroke="none" 
	d="
M640.640625,70.243767 
	C660.075745,70.221306 679.168335,70.316818 698.834900,70.613823 
	C699.588318,70.929764 699.780701,71.015289 699.985962,71.071884 
	C698.070801,71.380974 696.156677,71.950821 694.240295,71.958595 
	C676.120422,72.032089 658.000122,72.009880 639.404175,72.032944 
	C638.928406,72.050636 638.889771,72.087700 638.905396,71.866173 
	C638.914856,71.362572 638.915161,71.080498 638.921936,70.798431 
	C639.380676,70.652870 639.839478,70.507309 640.640625,70.243767 
z"/>
<path fill="#FE816B" opacity="1.000000" stroke="none" 
	d="
M715.398315,90.882477 
	C717.018738,91.855980 718.267212,92.762207 719.515747,93.668427 
	C718.057495,94.433067 716.634521,95.742073 715.132935,95.839569 
	C712.647644,96.000938 703.865845,88.724358 703.797241,86.538605 
	C703.752686,85.118225 704.748657,83.665169 705.278381,82.226746 
	C707.383240,83.332176 709.752319,84.129074 711.513062,85.636429 
	C713.041748,86.945045 713.881897,89.057838 715.398315,90.882477 
z"/>
<path fill="#DE5355" opacity="1.000000" stroke="none" 
	d="
M639.006836,110.895096 
	C639.096130,111.296860 639.053162,111.494507 638.966675,111.992752 
	C638.582703,112.386818 638.242249,112.480286 637.157043,112.405197 
	C627.839478,112.278458 619.266724,112.320267 610.693970,112.362068 
	C610.211060,109.499947 609.728149,106.637817 609.330078,103.370399 
	C609.864990,103.414841 610.741394,103.906303 610.702087,104.308113 
	C610.000854,111.470139 614.628540,111.357605 619.619263,111.096329 
	C625.580688,110.784233 631.554321,110.707275 637.869202,110.261810 
	C638.476013,110.188545 638.695618,110.420486 639.006836,110.895096 
z"/>
<path fill="#EE8D7E" opacity="1.000000" stroke="none" 
	d="
M691.730042,168.894363 
	C691.933960,162.637360 692.462463,156.224686 693.112366,149.414658 
	C692.840759,155.591095 692.447693,162.164902 691.730042,168.894363 
z"/>
<path fill="#EE8D7E" opacity="1.000000" stroke="none" 
	d="
M689.699585,190.893265 
	C689.890137,184.963074 690.412659,178.879410 691.065063,172.400818 
	C690.807129,178.250534 690.419312,184.495178 689.699585,190.893265 
z"/>
<path fill="#EE8D7E" opacity="1.000000" stroke="none" 
	d="
M693.739258,146.888672 
	C693.904358,141.294373 694.395508,135.540283 695.009888,129.389999 
	C694.777222,134.905487 694.421326,140.817200 693.739258,146.888672 
z"/>
<path fill="#E7897D" opacity="1.000000" stroke="none" 
	d="
M701.656738,56.885628 
	C701.524414,53.639194 701.730347,50.244858 701.969238,46.098251 
	C702.009033,44.889946 702.015930,44.433910 702.022827,43.977871 
	C702.022827,43.977871 702.109253,43.883690 702.152893,43.835358 
	C702.730774,45.152603 703.803040,46.564411 703.690430,47.874409 
	C703.434265,50.855400 702.596436,53.786404 701.656738,56.885628 
z"/>
<path fill="#E7897D" opacity="1.000000" stroke="none" 
	d="
M700.265869,70.806114 
	C699.780701,71.015289 699.588318,70.929764 699.309082,70.694107 
	C699.209351,70.572891 699.068665,70.263802 699.265625,70.063530 
	C699.762817,69.660858 699.874512,69.382706 699.797668,69.028809 
	C700.179504,65.949440 700.561340,62.870064 701.070068,59.402401 
	C700.979858,62.856186 700.762817,66.698265 700.265869,70.806114 
z"/>
<path fill="#DE5355" opacity="1.000000" stroke="none" 
	d="
M638.489502,70.618660 
	C638.915161,71.080498 638.914856,71.362572 638.881287,71.854019 
	C630.520264,72.020004 622.199097,71.954865 613.877747,71.940475 
	C607.795410,71.929962 607.542664,72.620209 608.219238,78.551262 
	C609.042236,85.765381 609.225403,93.052475 609.466858,100.653381 
	C608.428650,92.375145 607.609009,83.751526 606.819580,74.289780 
	C606.793762,73.198395 606.737732,72.945145 606.681641,72.691910 
	C607.759644,71.884201 608.828125,70.391449 609.917114,70.376305 
	C619.295044,70.245926 628.676636,70.382187 638.489502,70.618660 
z"/>
<path fill="#EE8D7E" opacity="1.000000" stroke="none" 
	d="
M611.074280,112.566124 
	C619.266724,112.320267 627.839478,112.278458 636.892212,112.380798 
	C628.732910,112.606697 620.093811,112.688438 611.074280,112.566124 
z"/>
<path fill="#E7897D" opacity="1.000000" stroke="none" 
	d="
M606.585205,72.876862 
	C606.737732,72.945145 606.793762,73.198395 606.819702,73.839691 
	C606.689331,73.839104 606.589050,73.450462 606.585205,72.876862 
z"/>
<path fill="#FC836D" opacity="1.000000" stroke="none" 
	d="
M648.053345,146.096085 
	C648.859253,140.184952 653.084412,140.443802 656.748718,141.179092 
	C660.185608,141.868729 663.619263,144.405975 662.709290,148.197113 
	C662.089844,150.777527 659.225891,153.897247 656.708435,154.690323 
	C652.970398,155.867966 649.715759,153.641586 648.658264,149.377930 
	C648.422119,148.425705 648.240723,147.459885 648.053345,146.096085 
M653.010254,144.722763 
	C650.797424,147.925568 653.629272,149.148819 655.507812,150.469727 
	C656.035767,150.840958 657.431763,149.977509 658.429626,149.680389 
	C657.429016,148.117966 656.497925,146.503052 655.383423,145.026611 
	C655.068481,144.609406 654.217163,144.597168 653.010254,144.722763 
z"/>
<path fill="#F8F5F5" opacity="1.000000" stroke="none" 
	d="
M663.351196,139.090332 
	C663.898621,137.056534 664.795532,135.130524 665.692444,133.204498 
	C666.932922,134.122803 668.173462,135.041122 669.413940,135.959442 
	C668.389465,137.298233 667.364990,138.637039 666.032227,140.001740 
	C665.049500,139.751129 664.375122,139.474625 663.351196,139.090332 
z"/>
<path fill="#F8F5F5" opacity="1.000000" stroke="none" 
	d="
M655.397827,139.065521 
	C655.746826,137.413956 656.492126,135.844589 657.237427,134.275238 
	C657.826355,135.556152 658.415344,136.837036 659.006165,138.511688 
	C657.936707,138.986221 656.865417,139.066971 655.397827,139.065521 
z"/>
<path fill="#F8F5F5" opacity="1.000000" stroke="none" 
	d="
M664.726868,153.230469 
	C664.961792,153.917618 665.007874,154.863281 664.785889,155.911942 
	C664.524536,155.172958 664.531250,154.330978 664.726868,153.230469 
z"/>
<path fill="#FC836D" opacity="1.000000" stroke="none" 
	d="
M664.550964,149.269104 
	C664.738342,149.785568 664.750793,150.488480 664.625122,151.518463 
	C664.449951,151.048874 664.412964,150.252213 664.550964,149.269104 
z"/>
<path fill="#FB4144" opacity="1.000000" stroke="none" 
	d="
M638.223145,141.987427 
	C638.080322,141.910080 638.072815,141.703903 638.104858,141.189972 
	C638.261963,141.092957 638.404724,141.294754 638.484680,141.518967 
	C638.515686,141.606125 638.404785,141.743866 638.223145,141.987427 
z"/>
<path fill="#FC3435" opacity="1.000000" stroke="none" 
	d="
M609.768738,20.321344 
	C609.235596,18.752649 609.031433,17.358345 608.827271,15.964041 
	C609.694397,15.980170 610.892883,15.644541 611.360474,16.084900 
	C612.364624,17.030724 612.992065,18.376593 613.773743,19.558676 
	C612.548401,19.871031 611.323059,20.183384 609.768738,20.321344 
z"/>
<path fill="#F67B65" opacity="1.000000" stroke="none" 
	d="
M719.337646,78.579323 
	C720.294373,78.547501 721.268188,78.474159 721.509277,78.859337 
	C722.371155,80.236740 723.110229,81.732201 723.571106,83.279686 
	C723.650146,83.545158 721.629150,84.866905 721.449707,84.709183 
	C720.199402,83.610237 719.046509,82.332108 718.169617,80.920547 
	C717.923828,80.524918 718.707214,79.489899 719.337646,78.579323 
z"/>
<path fill="#F8F5F5" opacity="1.000000" stroke="none" 
	d="
M701.683472,43.943657 
	C702.015930,44.433910 702.009033,44.889946 701.917358,45.678051 
	C701.255127,45.560959 700.677612,45.111801 700.048462,44.371239 
	C700.445801,44.023033 700.894958,43.966236 701.683472,43.943657 
z"/>
<path fill="#F8F5F5" opacity="1.000000" stroke="none" 
	d="
M677.016235,113.415619 
	C678.390991,112.987312 679.778503,112.926376 681.578735,112.929115 
	C681.551270,114.232315 681.110962,115.471832 680.670654,116.711349 
	C679.456787,115.735222 678.242859,114.759102 677.016235,113.415619 
z"/>
<path fill="#F8F5F5" opacity="1.000000" stroke="none" 
	d="
M689.159729,113.687309 
	C690.264465,113.144585 691.309143,113.019768 692.674866,112.971893 
	C692.164246,114.265862 691.332520,115.482895 690.500793,116.699936 
	C690.033691,115.835037 689.566650,114.970131 689.159729,113.687309 
z"/>
<path fill="#F8F5F5" opacity="1.000000" stroke="none" 
	d="
M695.125244,113.256653 
	C695.300842,113.205055 695.584534,113.344429 695.893311,113.733688 
	C695.643616,113.864372 695.415222,113.685722 695.125244,113.256653 
z"/>
<path fill="#F8F5F5" opacity="1.000000" stroke="none" 
	d="
M699.627991,69.145035 
	C699.874512,69.382706 699.762817,69.660858 699.227783,69.897980 
	C699.094055,69.671448 699.249146,69.447632 699.627991,69.145035 
z"/>
<path fill="#F67B65" opacity="1.000000" stroke="none" 
	d="
M653.311035,144.560974 
	C654.217163,144.597168 655.068481,144.609406 655.383423,145.026611 
	C656.497925,146.503052 657.429016,148.117966 658.429626,149.680389 
	C657.431763,149.977509 656.035767,150.840958 655.507812,150.469727 
	C653.629272,149.148819 650.797424,147.925568 653.311035,144.560974 
z"/>
</svg>